<svg width="746" height="302" viewBox="0 0 746 302" fill="none" xmlns="http://www.w3.org/2000/svg">
<path fill-rule="evenodd" clip-rule="evenodd" d="M165.707 0.431458C140.584 4.24386 122.793 14.3125 110.476 31.615C100.994 45.0073 96.3997 57.813 95.6177 73.2581C95.0312 84.7931 96.1065 93.0044 99.8211 104.246C101.092 108.254 102.167 112.457 102.167 113.533C102.167 114.804 85.4513 132.301 52.8992 164.951C-2.33171 220.573 0.0143849 217.543 0.0143849 232.01C0.0143849 238.462 0.503154 240.808 2.65374 245.403C6.27063 253.223 13.1134 260.261 20.9337 264.074C26.5057 266.811 28.363 267.202 35.2058 267.202C48.8913 267.202 50.2599 266.224 83.3985 233.183L111.943 204.639V241.884C111.943 285.091 112.04 285.482 120.154 293.693C129.343 302.784 96.0087 301.904 429.154 301.904H723.589L729.845 298.679C733.951 296.626 737.177 294.084 739.229 291.347C745.681 282.842 745.388 288.805 745.388 164.071C745.388 35.0363 745.974 44.323 737.177 35.5251C732.973 31.3217 731.116 30.1487 726.912 29.2689C723.002 28.4868 659.951 28.2913 483.505 28.7801H198.768C207.542 19.7083 211.652 14.9365 211.652 13.8237C211.652 6.39445 182.521 -2.01239 165.707 0.431458ZM221.231 90.4628L233.06 78.5368L244.888 67.4907L248.016 64.4603C251.535 61.0389 254.468 60.6479 257.498 63.0917C260.724 65.7311 262.288 80.5897 260.724 93.4932C256.716 127.805 234.135 154.198 200.899 163.583C192.101 166.124 172.941 166.124 162.384 163.68L154.661 161.921L139.216 177.366L123.673 192.909V235.432C123.673 282.842 123.575 282.451 130.418 286.948L133.742 289.196H428.176H722.611L725.837 286.948C727.597 285.775 730.041 283.527 731.116 282.06L733.169 279.323V164.658C733.169 55.8579 733.071 49.9927 731.409 47.4511C730.432 45.887 728.281 43.8342 726.521 42.8567C723.491 40.9016 719.581 40.9016 486.731 40.9016H250.069H186.813L166.196 61.4299V70.0323C166.196 76.484 166.685 79.3189 168.053 81.9582C170.888 87.2369 181.446 98.5764 185.258 100.531C191.123 103.464 199.432 104.735 204.711 103.464C208.817 102.487 210.772 100.922 221.231 90.4628ZM195.131 15.7788L188.973 14.2148C165.023 8.25177 142.735 14.8013 125.433 32.8858C107.544 51.6545 102.558 75.8975 111.258 101.802C113.311 107.667 114.875 113.044 114.875 113.826C114.875 118.714 108.423 125.85 62.4791 171.892C11.2561 223.31 11.2561 223.31 11.2561 232.401C11.3538 239.831 17.6101 249.215 25.4304 253.321C30.5136 255.96 39.6047 256.156 44.4924 253.614C46.3497 252.637 70.5927 229.273 98.2571 201.707C132.569 167.493 149.48 151.266 151.337 150.777C154.27 150.093 156.127 150.386 167.662 152.83C177.633 155.078 190.928 154.296 201.387 150.972C218.983 145.303 233.451 133.084 241.369 117.052C243.813 111.969 246.55 105.224 247.332 101.998C249.189 94.764 250.362 80.0031 249.189 80.0031C248.7 80.0031 241.271 87.0414 232.669 95.6438C219.374 108.938 216.246 111.578 211.652 113.337C204.32 116.172 193.86 116.074 184.769 113.239C178.415 111.284 177.242 110.405 169.422 102.389C158.473 91.0493 154.857 84.1088 154.172 73.1604C153.879 68.7614 154.27 63.2872 154.954 60.2569C156.127 55.3692 157.203 54.0984 175.678 35.4274L195.131 15.7788Z" fill="#143A6F"/>
<path d="M287.802 63.4827C283.012 64.2647 280.275 66.0243 278.124 69.5434C276.267 72.5738 276.169 75.0176 276.169 136.016C276.169 205.421 275.876 202.293 282.034 207.376C283.696 208.843 286.629 210.407 288.682 210.993C293.178 212.166 690.939 212.264 697.391 211.091C702.963 210.016 706.286 207.474 709.024 202.098L711.174 197.797L710.979 135.039C710.685 73.0626 710.685 72.2805 708.632 69.5434C707.459 68.0771 705.113 65.9265 703.256 64.8512C699.932 62.8962 698.173 62.8962 495.529 62.8962C383.21 62.8962 289.659 63.1894 287.802 63.4827ZM698.368 75.5064C699.15 76.3862 699.444 85.9661 699.248 108.449L698.955 140.122L668.553 140.415L638.25 140.611L634.242 134.257C629.843 127.512 626.91 125.85 622.609 127.805C621.143 128.489 616.06 135.136 609.608 145.107C603.743 154.003 598.757 160.943 598.464 160.552C598.268 160.064 593.772 149.311 588.591 136.603C572.07 96.0347 568.16 87.5301 565.325 85.8683C560.047 82.9357 558.971 84.793 541.278 127.218C532.382 148.529 524.855 166.027 524.562 166.027C524.269 166.027 522.216 163.485 520.163 160.357C513.711 151.168 488.295 116.856 485.46 113.826C482.137 110.209 479.204 109.134 475.978 110.307C474.023 111.089 471.775 114.803 465.128 128.587L456.818 145.889L454.57 141.979C449.291 132.986 447.336 130.835 444.501 130.835C441.178 130.835 439.516 132.595 428.763 146.965C424.364 152.83 420.454 157.62 420.161 157.522C419.77 157.424 413.807 145.791 406.768 131.617C396.7 111.48 393.376 105.615 391.323 104.442C385.947 101.509 384.676 103.269 368.644 135.43C360.531 151.754 353.688 165.049 353.395 165.049C353.102 165.049 349.68 159.966 345.672 153.807C341.664 147.551 337.559 141.881 336.386 141.099C334.822 139.926 329.836 139.633 311.165 139.633H287.9V107.57C287.9 89.8762 288.193 75.1154 288.584 74.8221C288.877 74.4311 381.059 74.1379 493.183 74.1379C664.741 74.1379 697.391 74.3334 698.368 75.5064ZM578.033 141.588C597.095 188.803 595.531 188.021 613.713 160.357C625.346 142.566 625.542 142.272 627.008 144.618C627.888 145.889 629.55 148.04 630.723 149.408L632.775 151.852L666.11 152.145L699.444 152.439V174.727C699.444 192.322 699.15 197.308 698.075 198.188C697.098 198.97 642.746 199.165 492.596 199.067L288.388 198.774L288.095 175.02L287.9 151.363H308.721H329.543L339.318 165.733C345.086 174.336 350.169 180.69 351.635 181.472C357.305 184.111 358.087 183.036 374.021 151.168L388.782 121.646L400.903 146.476C407.55 160.064 413.807 171.794 414.784 172.478C419.476 176.095 422.507 173.847 434.628 158.206L443.622 146.476L448.216 154.589C451.442 160.064 453.593 162.898 455.352 163.485C460.533 165.342 461.804 163.583 471.091 143.152C475.783 132.595 480.084 124.188 480.475 124.481C481.452 125.068 495.92 145.4 510.29 166.32C516.057 174.824 521.629 182.156 522.705 182.742C525.148 184.013 528.374 183.036 530.818 180.103C531.893 178.832 539.616 161.334 547.925 141.295C556.234 121.157 563.175 105.028 563.37 105.321C563.566 105.615 570.115 121.94 578.033 141.588Z" fill="#143A6F"/>
<path d="M590.155 230.055C576.762 234.259 570.408 249.704 576.762 262.51C586.147 281.278 613.909 278.639 619.872 258.404C623.391 245.989 616.744 233.77 604.427 230.055C598.366 228.296 595.727 228.296 590.155 230.055ZM604.036 242.372C605.404 243.448 607.262 245.696 608.044 247.162C613.811 258.209 599.148 269.352 589.861 261.043C587.222 258.697 586.636 257.426 586.245 252.734C585.854 247.456 585.951 247.065 589.275 243.741C592.208 240.808 593.381 240.32 597.095 240.32C600.028 240.32 602.276 241.004 604.036 242.372Z" fill="#143A6F"/>
<path d="M664.448 229.958C650.762 234.454 644.604 249.997 651.349 262.901C658.583 276.782 676.96 279.421 688.202 268.179C699.541 256.938 696.413 238.364 682.141 231.131C677.742 228.882 669.433 228.394 664.448 229.958ZM678.818 242.763C687.518 250.193 682.728 263.78 671.388 263.78C667.674 263.78 666.501 263.292 663.666 260.457C660.733 257.524 660.342 256.547 660.342 252.05C660.342 247.553 660.733 246.576 663.666 243.643C666.501 240.808 667.674 240.32 671.388 240.32C674.712 240.32 676.569 240.906 678.818 242.763Z" fill="#143A6F"/>
<path d="M282.523 233.379C281.448 233.868 279.688 235.236 278.613 236.409C276.853 238.364 276.658 239.928 276.658 253.712V268.864L279.395 271.21L282.132 273.556H310.97C341.176 273.556 344.401 273.165 345.965 269.157C346.259 268.277 346.552 261.239 346.552 253.614C346.552 237.68 345.672 235.432 338.927 233.477C334.626 232.304 285.358 232.206 282.523 233.379ZM334.822 253.223V262.803H311.361H287.9V253.712C287.9 248.629 288.095 244.327 288.291 244.132C288.486 243.936 299.044 243.741 311.752 243.741H334.822V253.223Z" fill="#143A6F"/>
<path d="M377.247 233.477C372.555 235.334 371.968 237.778 371.968 254.103C371.968 268.375 372.066 269.45 374.021 271.21C375.976 272.969 377.931 273.067 406.768 273.067C444.99 273.067 441.764 274.729 442.155 254.689C442.449 239.049 441.862 236.898 436.486 234.259C433.455 232.695 429.936 232.499 406.182 232.597C391.421 232.597 378.322 232.988 377.247 233.477ZM430.62 253.321V262.803L407.062 262.607L383.503 262.314L383.601 253.223C383.601 248.335 383.601 244.132 383.698 243.936C383.698 243.839 394.256 243.741 407.159 243.741H430.62V253.321Z" fill="#143A6F"/>
<path d="M472.654 233.77C470.797 234.454 468.744 236.018 468.06 237.387C466.496 240.515 466.3 265.638 467.865 268.961C469.82 273.263 472.068 273.556 501.492 273.556C519.772 273.556 530.036 273.165 531.6 272.481C535.412 270.721 536.195 267.593 536.195 253.223C536.195 232.206 536.683 232.499 501.296 232.597C484.483 232.597 474.903 232.988 472.654 233.77ZM524.464 253.223V262.803H501.492H478.52V253.223V243.741H501.492H524.464V253.223Z" fill="#143A6F"/>
</svg>
